<mxfile host="Electron" modified="2023-12-15T12:49:27.539Z" agent="Mozilla/5.0 (Windows NT 10.0; Win64; x64) AppleWebKit/537.36 (KHTML, like Gecko) draw.io/22.1.2 Chrome/114.0.5735.289 Electron/25.9.4 Safari/537.36" etag="MSu_CktV9VYPci-h5LNT" version="22.1.2" type="device">
  <diagram name="Page-1" id="e7e014a7-5840-1c2e-5031-d8a46d1fe8dd">
    <mxGraphModel dx="1036" dy="1439" grid="1" gridSize="10" guides="1" tooltips="1" connect="1" arrows="1" fold="1" page="1" pageScale="1" pageWidth="1169" pageHeight="826" background="none" math="0" shadow="0">
      <root>
        <mxCell id="0" />
        <mxCell id="1" parent="0" />
        <mxCell id="rjHA3d3lmKw4DAlLc2Mj-44" value="" style="endArrow=none;html=1;rounded=0;strokeWidth=2;" edge="1" parent="1">
          <mxGeometry width="50" height="50" relative="1" as="geometry">
            <mxPoint x="280" y="800" as="sourcePoint" />
            <mxPoint x="280" y="-40" as="targetPoint" />
          </mxGeometry>
        </mxCell>
        <mxCell id="rjHA3d3lmKw4DAlLc2Mj-45" value="" style="endArrow=none;html=1;rounded=0;strokeWidth=2;" edge="1" parent="1">
          <mxGeometry width="50" height="50" relative="1" as="geometry">
            <mxPoint x="600" y="800" as="sourcePoint" />
            <mxPoint x="600" y="-40" as="targetPoint" />
          </mxGeometry>
        </mxCell>
        <mxCell id="rjHA3d3lmKw4DAlLc2Mj-46" value="" style="group" vertex="1" connectable="0" parent="1">
          <mxGeometry x="60" y="20" width="60" height="40" as="geometry" />
        </mxCell>
        <mxCell id="rjHA3d3lmKw4DAlLc2Mj-41" value="" style="ellipse;whiteSpace=wrap;html=1;aspect=fixed;fillColor=#000000;" vertex="1" parent="rjHA3d3lmKw4DAlLc2Mj-46">
          <mxGeometry x="10" y="20" width="20" height="20" as="geometry" />
        </mxCell>
        <mxCell id="rjHA3d3lmKw4DAlLc2Mj-42" value="Start" style="text;html=1;strokeColor=none;fillColor=none;align=center;verticalAlign=middle;whiteSpace=wrap;rounded=0;" vertex="1" parent="rjHA3d3lmKw4DAlLc2Mj-46">
          <mxGeometry x="-8" width="60" height="20" as="geometry" />
        </mxCell>
        <mxCell id="rjHA3d3lmKw4DAlLc2Mj-47" value="" style="endArrow=none;html=1;rounded=0;" edge="1" parent="1">
          <mxGeometry width="50" height="50" relative="1" as="geometry">
            <mxPoint x="20" as="sourcePoint" />
            <mxPoint x="1000" as="targetPoint" />
          </mxGeometry>
        </mxCell>
        <mxCell id="rjHA3d3lmKw4DAlLc2Mj-48" value="&lt;font style=&quot;font-size: 16px;&quot;&gt;Administrator&lt;/font&gt;" style="text;html=1;strokeColor=none;fillColor=none;align=center;verticalAlign=middle;whiteSpace=wrap;rounded=0;" vertex="1" parent="1">
          <mxGeometry x="382.5" y="-35" width="115" height="30" as="geometry" />
        </mxCell>
        <mxCell id="rjHA3d3lmKw4DAlLc2Mj-49" value="&lt;span style=&quot;color: rgb(0, 0, 0); font-family: Helvetica; font-size: 16px; font-style: normal; font-variant-ligatures: normal; font-variant-caps: normal; font-weight: 400; letter-spacing: normal; orphans: 2; text-align: center; text-indent: 0px; text-transform: none; widows: 2; word-spacing: 0px; -webkit-text-stroke-width: 0px; background-color: rgb(251, 251, 251); text-decoration-thickness: initial; text-decoration-style: initial; text-decoration-color: initial; float: none; display: inline !important;&quot;&gt;System&lt;/span&gt;" style="text;whiteSpace=wrap;html=1;" vertex="1" parent="1">
          <mxGeometry x="665" y="-35" width="60" height="30" as="geometry" />
        </mxCell>
        <mxCell id="rjHA3d3lmKw4DAlLc2Mj-50" value="&lt;span style=&quot;color: rgb(0, 0, 0); font-family: Helvetica; font-size: 16px; font-style: normal; font-variant-ligatures: normal; font-variant-caps: normal; font-weight: 400; letter-spacing: normal; orphans: 2; text-align: center; text-indent: 0px; text-transform: none; widows: 2; word-spacing: 0px; -webkit-text-stroke-width: 0px; background-color: rgb(251, 251, 251); text-decoration-thickness: initial; text-decoration-style: initial; text-decoration-color: initial; float: none; display: inline !important;&quot;&gt;DataBase&lt;/span&gt;" style="text;whiteSpace=wrap;html=1;" vertex="1" parent="1">
          <mxGeometry x="850" y="-37.5" width="80" height="35" as="geometry" />
        </mxCell>
        <mxCell id="rjHA3d3lmKw4DAlLc2Mj-51" value="Login" style="rounded=1;whiteSpace=wrap;html=1;" vertex="1" parent="1">
          <mxGeometry x="103.75" y="185" width="90" height="30" as="geometry" />
        </mxCell>
        <mxCell id="rjHA3d3lmKw4DAlLc2Mj-53" value="Check book Database" style="rounded=1;whiteSpace=wrap;html=1;" vertex="1" parent="1">
          <mxGeometry x="650" y="544.5" width="100" height="40" as="geometry" />
        </mxCell>
        <mxCell id="rjHA3d3lmKw4DAlLc2Mj-55" value="" style="rhombus;whiteSpace=wrap;html=1;" vertex="1" parent="1">
          <mxGeometry x="148.75" y="339" width="60" height="40" as="geometry" />
        </mxCell>
        <mxCell id="rjHA3d3lmKw4DAlLc2Mj-57" value="&lt;font style=&quot;font-size: 16px;&quot;&gt;User&lt;/font&gt;" style="text;html=1;strokeColor=none;fillColor=none;align=center;verticalAlign=middle;whiteSpace=wrap;rounded=0;" vertex="1" parent="1">
          <mxGeometry x="120" y="-35" width="60" height="30" as="geometry" />
        </mxCell>
        <mxCell id="rjHA3d3lmKw4DAlLc2Mj-58" value="" style="endArrow=none;html=1;rounded=0;strokeWidth=2;" edge="1" parent="1">
          <mxGeometry width="50" height="50" relative="1" as="geometry">
            <mxPoint x="802" y="800" as="sourcePoint" />
            <mxPoint x="800" y="-40" as="targetPoint" />
          </mxGeometry>
        </mxCell>
        <mxCell id="rjHA3d3lmKw4DAlLc2Mj-134" style="edgeStyle=orthogonalEdgeStyle;rounded=0;orthogonalLoop=1;jettySize=auto;html=1;exitX=0.5;exitY=1;exitDx=0;exitDy=0;entryX=0;entryY=0.5;entryDx=0;entryDy=0;" edge="1" parent="1" target="rjHA3d3lmKw4DAlLc2Mj-53">
          <mxGeometry relative="1" as="geometry">
            <mxPoint x="370.5" y="521" as="sourcePoint" />
            <Array as="points">
              <mxPoint x="371" y="565" />
              <mxPoint x="511" y="565" />
            </Array>
          </mxGeometry>
        </mxCell>
        <mxCell id="rjHA3d3lmKw4DAlLc2Mj-60" value="Manage book assortment" style="rounded=1;whiteSpace=wrap;html=1;" vertex="1" parent="1">
          <mxGeometry x="320.5" y="480" width="100" height="40" as="geometry" />
        </mxCell>
        <mxCell id="rjHA3d3lmKw4DAlLc2Mj-133" style="edgeStyle=orthogonalEdgeStyle;rounded=0;orthogonalLoop=1;jettySize=auto;html=1;exitX=1;exitY=0.5;exitDx=0;exitDy=0;entryX=0;entryY=0.5;entryDx=0;entryDy=0;" edge="1" parent="1" source="rjHA3d3lmKw4DAlLc2Mj-61" target="rjHA3d3lmKw4DAlLc2Mj-116">
          <mxGeometry relative="1" as="geometry" />
        </mxCell>
        <mxCell id="rjHA3d3lmKw4DAlLc2Mj-61" value="Manage user accounts" style="rounded=1;whiteSpace=wrap;html=1;" vertex="1" parent="1">
          <mxGeometry x="460.5" y="481" width="100" height="40" as="geometry" />
        </mxCell>
        <mxCell id="rjHA3d3lmKw4DAlLc2Mj-68" value="" style="group" vertex="1" connectable="0" parent="1">
          <mxGeometry x="144" y="758" width="60" height="40" as="geometry" />
        </mxCell>
        <mxCell id="rjHA3d3lmKw4DAlLc2Mj-66" value="" style="ellipse;whiteSpace=wrap;html=1;aspect=fixed;fillColor=#000000;" vertex="1" parent="rjHA3d3lmKw4DAlLc2Mj-68">
          <mxGeometry x="20" width="20" height="20" as="geometry" />
        </mxCell>
        <mxCell id="rjHA3d3lmKw4DAlLc2Mj-67" value="Logout" style="text;html=1;strokeColor=none;fillColor=none;align=center;verticalAlign=middle;whiteSpace=wrap;rounded=0;" vertex="1" parent="rjHA3d3lmKw4DAlLc2Mj-68">
          <mxGeometry y="20" width="60" height="20" as="geometry" />
        </mxCell>
        <mxCell id="rjHA3d3lmKw4DAlLc2Mj-70" value="" style="endArrow=none;html=1;rounded=0;strokeWidth=2;" edge="1" parent="1">
          <mxGeometry width="50" height="50" relative="1" as="geometry">
            <mxPoint x="20" y="800.5" as="sourcePoint" />
            <mxPoint x="20" y="-40" as="targetPoint" />
          </mxGeometry>
        </mxCell>
        <mxCell id="rjHA3d3lmKw4DAlLc2Mj-71" value="" style="endArrow=none;html=1;rounded=0;strokeWidth=2;" edge="1" parent="1">
          <mxGeometry width="50" height="50" relative="1" as="geometry">
            <mxPoint x="1000" y="800.5" as="sourcePoint" />
            <mxPoint x="1000" y="-40" as="targetPoint" />
          </mxGeometry>
        </mxCell>
        <mxCell id="rjHA3d3lmKw4DAlLc2Mj-73" value="" style="endArrow=none;html=1;rounded=0;" edge="1" parent="1">
          <mxGeometry width="50" height="50" relative="1" as="geometry">
            <mxPoint x="20" y="-40" as="sourcePoint" />
            <mxPoint x="1000" y="-40" as="targetPoint" />
          </mxGeometry>
        </mxCell>
        <mxCell id="rjHA3d3lmKw4DAlLc2Mj-87" value="" style="rhombus;whiteSpace=wrap;html=1;" vertex="1" parent="1">
          <mxGeometry x="410.5" y="260" width="60" height="40" as="geometry" />
        </mxCell>
        <mxCell id="rjHA3d3lmKw4DAlLc2Mj-88" value="" style="endArrow=classic;html=1;rounded=0;exitX=0.5;exitY=1;exitDx=0;exitDy=0;entryX=0.5;entryY=0;entryDx=0;entryDy=0;edgeStyle=orthogonalEdgeStyle;" edge="1" parent="1" source="rjHA3d3lmKw4DAlLc2Mj-51" target="rjHA3d3lmKw4DAlLc2Mj-87">
          <mxGeometry width="50" height="50" relative="1" as="geometry">
            <mxPoint x="520" y="390" as="sourcePoint" />
            <mxPoint x="420" y="210" as="targetPoint" />
            <Array as="points">
              <mxPoint x="150" y="215" />
              <mxPoint x="150" y="230" />
              <mxPoint x="441" y="230" />
            </Array>
          </mxGeometry>
        </mxCell>
        <mxCell id="rjHA3d3lmKw4DAlLc2Mj-89" value="" style="endArrow=classic;html=1;rounded=0;exitX=0;exitY=0.5;exitDx=0;exitDy=0;entryX=0.5;entryY=0;entryDx=0;entryDy=0;edgeStyle=orthogonalEdgeStyle;" edge="1" parent="1" source="rjHA3d3lmKw4DAlLc2Mj-87" target="rjHA3d3lmKw4DAlLc2Mj-55">
          <mxGeometry width="50" height="50" relative="1" as="geometry">
            <mxPoint x="520" y="390" as="sourcePoint" />
            <mxPoint x="570" y="340" as="targetPoint" />
          </mxGeometry>
        </mxCell>
        <mxCell id="rjHA3d3lmKw4DAlLc2Mj-93" value="Valid Data" style="edgeLabel;html=1;align=center;verticalAlign=middle;resizable=0;points=[];" vertex="1" connectable="0" parent="rjHA3d3lmKw4DAlLc2Mj-89">
          <mxGeometry x="-0.5549" y="2" relative="1" as="geometry">
            <mxPoint y="-2" as="offset" />
          </mxGeometry>
        </mxCell>
        <mxCell id="rjHA3d3lmKw4DAlLc2Mj-90" value="" style="endArrow=classic;html=1;rounded=0;exitX=1;exitY=0.5;exitDx=0;exitDy=0;edgeStyle=orthogonalEdgeStyle;entryX=1;entryY=0.5;entryDx=0;entryDy=0;" edge="1" parent="1" source="rjHA3d3lmKw4DAlLc2Mj-87" target="rjHA3d3lmKw4DAlLc2Mj-51">
          <mxGeometry width="50" height="50" relative="1" as="geometry">
            <mxPoint x="520" y="390" as="sourcePoint" />
            <mxPoint x="179" y="160" as="targetPoint" />
            <Array as="points">
              <mxPoint x="481" y="280" />
              <mxPoint x="481" y="200" />
            </Array>
          </mxGeometry>
        </mxCell>
        <mxCell id="rjHA3d3lmKw4DAlLc2Mj-92" value="Invalid Data" style="edgeLabel;html=1;align=center;verticalAlign=middle;resizable=0;points=[];" vertex="1" connectable="0" parent="rjHA3d3lmKw4DAlLc2Mj-90">
          <mxGeometry x="-0.713" y="-4" relative="1" as="geometry">
            <mxPoint as="offset" />
          </mxGeometry>
        </mxCell>
        <mxCell id="rjHA3d3lmKw4DAlLc2Mj-103" style="edgeStyle=orthogonalEdgeStyle;rounded=0;orthogonalLoop=1;jettySize=auto;html=1;exitX=0.313;exitY=0.525;exitDx=0;exitDy=0;entryX=0.5;entryY=0;entryDx=0;entryDy=0;exitPerimeter=0;" edge="1" parent="1" source="rjHA3d3lmKw4DAlLc2Mj-108">
          <mxGeometry relative="1" as="geometry">
            <mxPoint x="410.5" y="448.5" as="sourcePoint" />
            <mxPoint x="370.5" y="481" as="targetPoint" />
            <Array as="points">
              <mxPoint x="426" y="436" />
              <mxPoint x="426" y="460" />
              <mxPoint x="371" y="460" />
            </Array>
          </mxGeometry>
        </mxCell>
        <mxCell id="rjHA3d3lmKw4DAlLc2Mj-104" style="edgeStyle=orthogonalEdgeStyle;rounded=0;orthogonalLoop=1;jettySize=auto;html=1;exitX=0.771;exitY=0.425;exitDx=0;exitDy=0;entryX=0.5;entryY=0;entryDx=0;entryDy=0;exitPerimeter=0;" edge="1" parent="1" source="rjHA3d3lmKw4DAlLc2Mj-108" target="rjHA3d3lmKw4DAlLc2Mj-61">
          <mxGeometry relative="1" as="geometry">
            <mxPoint x="470.5" y="448.5" as="sourcePoint" />
            <Array as="points">
              <mxPoint x="454" y="435" />
              <mxPoint x="454" y="460" />
              <mxPoint x="511" y="460" />
            </Array>
          </mxGeometry>
        </mxCell>
        <mxCell id="rjHA3d3lmKw4DAlLc2Mj-118" style="edgeStyle=orthogonalEdgeStyle;rounded=0;orthogonalLoop=1;jettySize=auto;html=1;exitX=0.5;exitY=1;exitDx=0;exitDy=0;entryX=0.5;entryY=0;entryDx=0;entryDy=0;" edge="1" parent="1" source="rjHA3d3lmKw4DAlLc2Mj-98" target="rjHA3d3lmKw4DAlLc2Mj-130">
          <mxGeometry relative="1" as="geometry">
            <mxPoint x="740" y="640" as="targetPoint" />
          </mxGeometry>
        </mxCell>
        <mxCell id="rjHA3d3lmKw4DAlLc2Mj-98" value="Make a purchase" style="rounded=1;whiteSpace=wrap;html=1;" vertex="1" parent="1">
          <mxGeometry x="140" y="570" width="107.5" height="30" as="geometry" />
        </mxCell>
        <mxCell id="rjHA3d3lmKw4DAlLc2Mj-102" style="edgeStyle=orthogonalEdgeStyle;rounded=0;orthogonalLoop=1;jettySize=auto;html=1;exitX=0.247;exitY=0.475;exitDx=0;exitDy=0;entryX=0;entryY=0.5;entryDx=0;entryDy=0;exitPerimeter=0;" edge="1" parent="1" source="rjHA3d3lmKw4DAlLc2Mj-113" target="rjHA3d3lmKw4DAlLc2Mj-66">
          <mxGeometry relative="1" as="geometry">
            <mxPoint x="150" y="441" as="sourcePoint" />
            <Array as="points">
              <mxPoint x="165" y="460" />
              <mxPoint x="100" y="460" />
              <mxPoint x="100" y="768" />
            </Array>
          </mxGeometry>
        </mxCell>
        <mxCell id="rjHA3d3lmKw4DAlLc2Mj-101" value="" style="endArrow=classic;html=1;rounded=0;entryX=0.5;entryY=0;entryDx=0;entryDy=0;exitX=0.74;exitY=0.475;exitDx=0;exitDy=0;exitPerimeter=0;" edge="1" parent="1" source="rjHA3d3lmKw4DAlLc2Mj-113" target="rjHA3d3lmKw4DAlLc2Mj-98">
          <mxGeometry width="50" height="50" relative="1" as="geometry">
            <mxPoint x="190" y="425" as="sourcePoint" />
            <mxPoint x="370" y="440" as="targetPoint" />
          </mxGeometry>
        </mxCell>
        <mxCell id="rjHA3d3lmKw4DAlLc2Mj-108" value="" style="line;strokeWidth=2;fillColor=none;align=left;verticalAlign=middle;spacingTop=-1;spacingLeft=3;spacingRight=3;rotatable=0;labelPosition=right;points=[];portConstraint=eastwest;strokeColor=inherit;" vertex="1" parent="1">
          <mxGeometry x="410" y="432" width="60" height="8" as="geometry" />
        </mxCell>
        <mxCell id="rjHA3d3lmKw4DAlLc2Mj-111" value="" style="endArrow=classic;html=1;rounded=0;exitX=0.5;exitY=1;exitDx=0;exitDy=0;entryX=0.473;entryY=0.375;entryDx=0;entryDy=0;entryPerimeter=0;" edge="1" parent="1" source="rjHA3d3lmKw4DAlLc2Mj-55" target="rjHA3d3lmKw4DAlLc2Mj-113">
          <mxGeometry width="50" height="50" relative="1" as="geometry">
            <mxPoint x="179" y="379" as="sourcePoint" />
            <mxPoint x="180" y="420" as="targetPoint" />
          </mxGeometry>
        </mxCell>
        <mxCell id="rjHA3d3lmKw4DAlLc2Mj-112" value="User" style="edgeLabel;html=1;align=center;verticalAlign=middle;resizable=0;points=[];" vertex="1" connectable="0" parent="rjHA3d3lmKw4DAlLc2Mj-111">
          <mxGeometry x="-0.0347" y="2" relative="1" as="geometry">
            <mxPoint y="-2" as="offset" />
          </mxGeometry>
        </mxCell>
        <mxCell id="rjHA3d3lmKw4DAlLc2Mj-113" value="" style="line;strokeWidth=2;fillColor=none;align=left;verticalAlign=middle;spacingTop=-1;spacingLeft=3;spacingRight=3;rotatable=0;labelPosition=right;points=[];portConstraint=eastwest;strokeColor=inherit;" vertex="1" parent="1">
          <mxGeometry x="150" y="420" width="60" height="8" as="geometry" />
        </mxCell>
        <mxCell id="rjHA3d3lmKw4DAlLc2Mj-116" value="Check user Database" style="rounded=1;whiteSpace=wrap;html=1;" vertex="1" parent="1">
          <mxGeometry x="650" y="480.5" width="100" height="40" as="geometry" />
        </mxCell>
        <mxCell id="rjHA3d3lmKw4DAlLc2Mj-119" value="Print a bill" style="rounded=1;whiteSpace=wrap;html=1;" vertex="1" parent="1">
          <mxGeometry x="137.5" y="681" width="110" height="30" as="geometry" />
        </mxCell>
        <mxCell id="rjHA3d3lmKw4DAlLc2Mj-121" value="Update data" style="rounded=1;whiteSpace=wrap;html=1;" vertex="1" parent="1">
          <mxGeometry x="860" y="635.5" width="100" height="40" as="geometry" />
        </mxCell>
        <mxCell id="rjHA3d3lmKw4DAlLc2Mj-124" value="" style="line;strokeWidth=2;fillColor=none;align=left;verticalAlign=middle;spacingTop=-1;spacingLeft=3;spacingRight=3;rotatable=0;labelPosition=right;points=[];portConstraint=eastwest;strokeColor=inherit;" vertex="1" parent="1">
          <mxGeometry x="877.5" y="567.5" width="65" height="50" as="geometry" />
        </mxCell>
        <mxCell id="rjHA3d3lmKw4DAlLc2Mj-127" style="edgeStyle=orthogonalEdgeStyle;rounded=0;orthogonalLoop=1;jettySize=auto;html=1;exitX=1;exitY=0.5;exitDx=0;exitDy=0;entryX=0.251;entryY=0.512;entryDx=0;entryDy=0;entryPerimeter=0;" edge="1" parent="1" source="rjHA3d3lmKw4DAlLc2Mj-53" target="rjHA3d3lmKw4DAlLc2Mj-124">
          <mxGeometry relative="1" as="geometry">
            <Array as="points">
              <mxPoint x="894" y="565" />
            </Array>
          </mxGeometry>
        </mxCell>
        <mxCell id="rjHA3d3lmKw4DAlLc2Mj-129" value="" style="endArrow=classic;html=1;rounded=0;entryX=0.5;entryY=0;entryDx=0;entryDy=0;" edge="1" parent="1" target="rjHA3d3lmKw4DAlLc2Mj-121">
          <mxGeometry width="50" height="50" relative="1" as="geometry">
            <mxPoint x="910" y="593" as="sourcePoint" />
            <mxPoint x="539" y="635.5" as="targetPoint" />
          </mxGeometry>
        </mxCell>
        <mxCell id="rjHA3d3lmKw4DAlLc2Mj-131" style="edgeStyle=orthogonalEdgeStyle;rounded=0;orthogonalLoop=1;jettySize=auto;html=1;exitX=0.5;exitY=1;exitDx=0;exitDy=0;entryX=1;entryY=0.5;entryDx=0;entryDy=0;" edge="1" parent="1" source="rjHA3d3lmKw4DAlLc2Mj-130" target="rjHA3d3lmKw4DAlLc2Mj-119">
          <mxGeometry relative="1" as="geometry" />
        </mxCell>
        <mxCell id="rjHA3d3lmKw4DAlLc2Mj-130" value="Process Request" style="rounded=1;whiteSpace=wrap;html=1;" vertex="1" parent="1">
          <mxGeometry x="640" y="646" width="110" height="30" as="geometry" />
        </mxCell>
        <mxCell id="rjHA3d3lmKw4DAlLc2Mj-135" style="edgeStyle=orthogonalEdgeStyle;rounded=0;orthogonalLoop=1;jettySize=auto;html=1;exitX=1;exitY=0.5;exitDx=0;exitDy=0;entryX=0.752;entryY=0.494;entryDx=0;entryDy=0;entryPerimeter=0;" edge="1" parent="1" source="rjHA3d3lmKw4DAlLc2Mj-116" target="rjHA3d3lmKw4DAlLc2Mj-124">
          <mxGeometry relative="1" as="geometry">
            <Array as="points">
              <mxPoint x="926" y="501" />
            </Array>
          </mxGeometry>
        </mxCell>
        <mxCell id="rjHA3d3lmKw4DAlLc2Mj-136" value="" style="line;strokeWidth=2;fillColor=none;align=left;verticalAlign=middle;spacingTop=-1;spacingLeft=3;spacingRight=3;rotatable=0;labelPosition=right;points=[];portConstraint=eastwest;strokeColor=inherit;" vertex="1" parent="1">
          <mxGeometry x="350.5" y="379" width="60" height="8" as="geometry" />
        </mxCell>
        <mxCell id="rjHA3d3lmKw4DAlLc2Mj-137" style="edgeStyle=orthogonalEdgeStyle;rounded=0;orthogonalLoop=1;jettySize=auto;html=1;exitX=1;exitY=0.5;exitDx=0;exitDy=0;entryX=0.505;entryY=0.5;entryDx=0;entryDy=0;entryPerimeter=0;" edge="1" parent="1" source="rjHA3d3lmKw4DAlLc2Mj-55" target="rjHA3d3lmKw4DAlLc2Mj-136">
          <mxGeometry relative="1" as="geometry">
            <Array as="points">
              <mxPoint x="381" y="359" />
            </Array>
          </mxGeometry>
        </mxCell>
        <mxCell id="rjHA3d3lmKw4DAlLc2Mj-141" value="Admin" style="edgeLabel;html=1;align=center;verticalAlign=middle;resizable=0;points=[];" vertex="1" connectable="0" parent="rjHA3d3lmKw4DAlLc2Mj-137">
          <mxGeometry x="0.0676" y="-2" relative="1" as="geometry">
            <mxPoint y="-2" as="offset" />
          </mxGeometry>
        </mxCell>
        <mxCell id="rjHA3d3lmKw4DAlLc2Mj-138" value="" style="endArrow=classic;html=1;rounded=0;exitX=0.705;exitY=0.6;exitDx=0;exitDy=0;exitPerimeter=0;entryX=0.513;entryY=0.475;entryDx=0;entryDy=0;entryPerimeter=0;edgeStyle=orthogonalEdgeStyle;" edge="1" parent="1" source="rjHA3d3lmKw4DAlLc2Mj-136" target="rjHA3d3lmKw4DAlLc2Mj-108">
          <mxGeometry width="50" height="50" relative="1" as="geometry">
            <mxPoint x="560" y="560" as="sourcePoint" />
            <mxPoint x="610" y="510" as="targetPoint" />
            <Array as="points">
              <mxPoint x="393" y="410" />
              <mxPoint x="441" y="410" />
            </Array>
          </mxGeometry>
        </mxCell>
        <mxCell id="rjHA3d3lmKw4DAlLc2Mj-139" value="" style="endArrow=classic;html=1;rounded=0;exitX=0.318;exitY=0.4;exitDx=0;exitDy=0;exitPerimeter=0;entryX=0.5;entryY=0;entryDx=0;entryDy=0;edgeStyle=orthogonalEdgeStyle;" edge="1" parent="1" source="rjHA3d3lmKw4DAlLc2Mj-136" target="rjHA3d3lmKw4DAlLc2Mj-66">
          <mxGeometry width="50" height="50" relative="1" as="geometry">
            <mxPoint x="560" y="560" as="sourcePoint" />
            <mxPoint x="610" y="510" as="targetPoint" />
            <Array as="points">
              <mxPoint x="370" y="410" />
              <mxPoint x="300" y="410" />
              <mxPoint x="300" y="730" />
              <mxPoint x="174" y="730" />
            </Array>
          </mxGeometry>
        </mxCell>
        <mxCell id="rjHA3d3lmKw4DAlLc2Mj-140" value="" style="endArrow=none;html=1;rounded=0;" edge="1" parent="1">
          <mxGeometry width="50" height="50" relative="1" as="geometry">
            <mxPoint x="20" y="800" as="sourcePoint" />
            <mxPoint x="1000" y="800" as="targetPoint" />
          </mxGeometry>
        </mxCell>
        <mxCell id="rjHA3d3lmKw4DAlLc2Mj-145" style="edgeStyle=orthogonalEdgeStyle;rounded=0;orthogonalLoop=1;jettySize=auto;html=1;exitX=0.5;exitY=1;exitDx=0;exitDy=0;entryX=0;entryY=0.5;entryDx=0;entryDy=0;" edge="1" parent="1" source="rjHA3d3lmKw4DAlLc2Mj-143" target="rjHA3d3lmKw4DAlLc2Mj-51">
          <mxGeometry relative="1" as="geometry" />
        </mxCell>
        <mxCell id="rjHA3d3lmKw4DAlLc2Mj-149" style="edgeStyle=orthogonalEdgeStyle;rounded=0;orthogonalLoop=1;jettySize=auto;html=1;exitX=1;exitY=0.5;exitDx=0;exitDy=0;entryX=0;entryY=0.5;entryDx=0;entryDy=0;" edge="1" parent="1" source="rjHA3d3lmKw4DAlLc2Mj-143" target="rjHA3d3lmKw4DAlLc2Mj-148">
          <mxGeometry relative="1" as="geometry" />
        </mxCell>
        <mxCell id="rjHA3d3lmKw4DAlLc2Mj-143" value="" style="rhombus;whiteSpace=wrap;html=1;" vertex="1" parent="1">
          <mxGeometry x="49.75" y="101" width="60" height="40" as="geometry" />
        </mxCell>
        <mxCell id="rjHA3d3lmKw4DAlLc2Mj-146" style="edgeStyle=orthogonalEdgeStyle;rounded=0;orthogonalLoop=1;jettySize=auto;html=1;exitX=0.5;exitY=1;exitDx=0;exitDy=0;entryX=0.5;entryY=0;entryDx=0;entryDy=0;" edge="1" parent="1" source="rjHA3d3lmKw4DAlLc2Mj-41" target="rjHA3d3lmKw4DAlLc2Mj-143">
          <mxGeometry relative="1" as="geometry" />
        </mxCell>
        <mxCell id="rjHA3d3lmKw4DAlLc2Mj-152" style="edgeStyle=orthogonalEdgeStyle;rounded=0;orthogonalLoop=1;jettySize=auto;html=1;exitX=1;exitY=0.5;exitDx=0;exitDy=0;entryX=0;entryY=0.5;entryDx=0;entryDy=0;" edge="1" parent="1" source="rjHA3d3lmKw4DAlLc2Mj-148" target="rjHA3d3lmKw4DAlLc2Mj-159">
          <mxGeometry relative="1" as="geometry">
            <mxPoint x="670" y="121" as="targetPoint" />
          </mxGeometry>
        </mxCell>
        <mxCell id="rjHA3d3lmKw4DAlLc2Mj-148" value="Sign Up" style="rounded=1;whiteSpace=wrap;html=1;" vertex="1" parent="1">
          <mxGeometry x="150" y="106" width="90" height="30" as="geometry" />
        </mxCell>
        <mxCell id="rjHA3d3lmKw4DAlLc2Mj-161" style="edgeStyle=orthogonalEdgeStyle;rounded=0;orthogonalLoop=1;jettySize=auto;html=1;exitX=0.5;exitY=1;exitDx=0;exitDy=0;entryX=0.5;entryY=0;entryDx=0;entryDy=0;" edge="1" parent="1" source="rjHA3d3lmKw4DAlLc2Mj-159" target="rjHA3d3lmKw4DAlLc2Mj-51">
          <mxGeometry relative="1" as="geometry" />
        </mxCell>
        <mxCell id="rjHA3d3lmKw4DAlLc2Mj-159" value="Add user to a database" style="rounded=1;whiteSpace=wrap;html=1;" vertex="1" parent="1">
          <mxGeometry x="850" y="101" width="100" height="40" as="geometry" />
        </mxCell>
      </root>
    </mxGraphModel>
  </diagram>
</mxfile>
